<svg width="240" height="240" viewBox="0 0 240 240" xmlns="http://www.w3.org/2000/svg">
<g id="Frame 1">
<path id="SV" d="M78.7209 149.96C71.1609 149.96 64.4876 148.607 58.7009 145.9C52.9143 143.193 48.3876 139.32 45.1209 134.28C41.8543 129.24 40.2209 123.173 40.2209 116.08V112.16H58.4209V116.08C58.4209 121.96 60.2409 126.393 63.8809 129.38C67.5209 132.273 72.4676 133.72 78.7209 133.72C85.0676 133.72 89.7809 132.46 92.8609 129.94C96.0343 127.42 97.6209 124.2 97.6209 120.28C97.6209 117.573 96.8276 115.38 95.2409 113.7C93.7476 112.02 91.5076 110.667 88.5209 109.64C85.6276 108.52 82.0809 107.493 77.8809 106.56L74.6609 105.86C67.9409 104.367 62.1543 102.5 57.3009 100.26C52.5409 97.9267 48.8543 94.8933 46.2409 91.16C43.7209 87.4267 42.4609 82.5733 42.4609 76.6C42.4609 70.6267 43.8609 65.54 46.6609 61.34C49.5543 57.0467 53.5676 53.78 58.7009 51.54C63.9276 49.2067 70.0409 48.04 77.0409 48.04C84.0409 48.04 90.2476 49.2533 95.6609 51.68C101.168 54.0133 105.461 57.56 108.541 62.32C111.714 66.9867 113.301 72.8667 113.301 79.96V84.16H95.1009V79.96C95.1009 76.2267 94.3543 73.24 92.8609 71C91.4609 68.6667 89.4076 66.9867 86.7009 65.96C83.9943 64.84 80.7743 64.28 77.0409 64.28C71.4409 64.28 67.2876 65.3533 64.5809 67.5C61.9676 69.5533 60.6609 72.4 60.6609 76.04C60.6609 78.4667 61.2676 80.52 62.4809 82.2C63.7876 83.88 65.7009 85.28 68.2209 86.4C70.7409 87.52 73.9609 88.5 77.8809 89.34L81.1009 90.04C88.1009 91.5333 94.1676 93.4467 99.3009 95.78C104.528 98.1133 108.588 101.193 111.481 105.02C114.374 108.847 115.821 113.747 115.821 119.72C115.821 125.693 114.281 130.967 111.201 135.54C108.214 140.02 103.921 143.567 98.3209 146.18C92.8143 148.7 86.2809 149.96 78.7209 149.96ZM146.436 148L121.516 50H140.556L161.276 136.1H163.236L183.956 50H202.996L178.076 148H146.436Z" fill="#FFF"/>
<path id="Satyam Vyas" d="M51.8262 189.336C50.5302 189.336 49.3862 189.104 48.3942 188.64C47.4022 188.176 46.6262 187.512 46.0662 186.648C45.5062 185.784 45.2262 184.744 45.2262 183.528V182.856H48.3462V183.528C48.3462 184.536 48.6582 185.296 49.2822 185.808C49.9062 186.304 50.7542 186.552 51.8262 186.552C52.9142 186.552 53.7222 186.336 54.2502 185.904C54.7942 185.472 55.0662 184.92 55.0662 184.248C55.0662 183.784 54.9302 183.408 54.6582 183.12C54.4022 182.832 54.0182 182.6 53.5062 182.424C53.0102 182.232 52.4022 182.056 51.6822 181.896L51.1302 181.776C49.9782 181.52 48.9862 181.2 48.1542 180.816C47.3382 180.416 46.7062 179.896 46.2582 179.256C45.8262 178.616 45.6102 177.784 45.6102 176.76C45.6102 175.736 45.8502 174.864 46.3302 174.144C46.8262 173.408 47.5142 172.848 48.3942 172.464C49.2902 172.064 50.3382 171.864 51.5382 171.864C52.7382 171.864 53.8022 172.072 54.7302 172.488C55.6742 172.888 56.4102 173.496 56.9382 174.312C57.4822 175.112 57.7542 176.12 57.7542 177.336V178.056H54.6342V177.336C54.6342 176.696 54.5062 176.184 54.2502 175.8C54.0102 175.4 53.6582 175.112 53.1942 174.936C52.7302 174.744 52.1782 174.648 51.5382 174.648C50.5782 174.648 49.8662 174.832 49.4022 175.2C48.9542 175.552 48.7302 176.04 48.7302 176.664C48.7302 177.08 48.8342 177.432 49.0422 177.72C49.2662 178.008 49.5942 178.248 50.0262 178.44C50.4582 178.632 51.0102 178.8 51.6822 178.944L52.2342 179.064C53.4342 179.32 54.4742 179.648 55.3542 180.048C56.2502 180.448 56.9462 180.976 57.4422 181.632C57.9382 182.288 58.1862 183.128 58.1862 184.152C58.1862 185.176 57.9222 186.08 57.3942 186.864C56.8822 187.632 56.1462 188.24 55.1862 188.688C54.2422 189.12 53.1222 189.336 51.8262 189.336ZM64.3408 189.336C63.4928 189.336 62.7328 189.192 62.0608 188.904C61.3888 188.6 60.8528 188.168 60.4528 187.608C60.0688 187.032 59.8768 186.336 59.8768 185.52C59.8768 184.704 60.0688 184.024 60.4528 183.48C60.8528 182.92 61.3968 182.504 62.0848 182.232C62.7888 181.944 63.5888 181.8 64.4848 181.8H67.7488V181.128C67.7488 180.568 67.5728 180.112 67.2208 179.76C66.8688 179.392 66.3088 179.208 65.5408 179.208C64.7888 179.208 64.2288 179.384 63.8608 179.736C63.4928 180.072 63.2528 180.512 63.1408 181.056L60.3568 180.12C60.5488 179.512 60.8528 178.96 61.2688 178.464C61.7008 177.952 62.2688 177.544 62.9728 177.24C63.6928 176.92 64.5648 176.76 65.5888 176.76C67.1568 176.76 68.3968 177.152 69.3088 177.936C70.2208 178.72 70.6768 179.856 70.6768 181.344V185.784C70.6768 186.264 70.9008 186.504 71.3488 186.504H72.3088V189H70.2928C69.7008 189 69.2128 188.856 68.8288 188.568C68.4448 188.28 68.2528 187.896 68.2528 187.416V187.392H67.7968C67.7328 187.584 67.5888 187.84 67.3648 188.16C67.1408 188.464 66.7888 188.736 66.3088 188.976C65.8288 189.216 65.1728 189.336 64.3408 189.336ZM64.8688 186.888C65.7168 186.888 66.4048 186.656 66.9328 186.192C67.4768 185.712 67.7488 185.08 67.7488 184.296V184.056H64.7008C64.1408 184.056 63.7008 184.176 63.3808 184.416C63.0608 184.656 62.9008 184.992 62.9008 185.424C62.9008 185.856 63.0688 186.208 63.4048 186.48C63.7408 186.752 64.2288 186.888 64.8688 186.888ZM78.2127 189C77.4287 189 76.7887 188.76 76.2927 188.28C75.8127 187.784 75.5727 187.128 75.5727 186.312V179.592H72.5967V177.096H75.5727V173.4H78.5967V177.096H81.8607V179.592H78.5967V185.784C78.5967 186.264 78.8207 186.504 79.2687 186.504H81.5727V189H78.2127ZM85.894 193.8V191.16H92.374C92.822 191.16 93.046 190.92 93.046 190.44V187.44H92.614C92.486 187.712 92.286 187.984 92.014 188.256C91.742 188.528 91.374 188.752 90.91 188.928C90.446 189.104 89.854 189.192 89.134 189.192C88.206 189.192 87.39 188.984 86.686 188.568C85.998 188.136 85.462 187.544 85.078 186.792C84.694 186.04 84.502 185.176 84.502 184.2V177.096H87.526V183.96C87.526 184.856 87.742 185.528 88.174 185.976C88.622 186.424 89.254 186.648 90.07 186.648C90.998 186.648 91.718 186.344 92.23 185.736C92.742 185.112 92.998 184.248 92.998 183.144V177.096H96.022V191.112C96.022 191.928 95.782 192.576 95.302 193.056C94.822 193.552 94.182 193.8 93.382 193.8H85.894ZM103.083 189.336C102.235 189.336 101.475 189.192 100.803 188.904C100.131 188.6 99.595 188.168 99.195 187.608C98.811 187.032 98.619 186.336 98.619 185.52C98.619 184.704 98.811 184.024 99.195 183.48C99.595 182.92 100.139 182.504 100.827 182.232C101.531 181.944 102.331 181.8 103.227 181.8H106.491V181.128C106.491 180.568 106.315 180.112 105.963 179.76C105.611 179.392 105.051 179.208 104.283 179.208C103.531 179.208 102.971 179.384 102.603 179.736C102.235 180.072 101.995 180.512 101.883 181.056L99.099 180.12C99.291 179.512 99.595 178.96 100.011 178.464C100.443 177.952 101.011 177.544 101.715 177.24C102.435 176.92 103.307 176.76 104.331 176.76C105.899 176.76 107.139 177.152 108.051 177.936C108.963 178.72 109.419 179.856 109.419 181.344V185.784C109.419 186.264 109.643 186.504 110.091 186.504H111.051V189H109.035C108.443 189 107.955 188.856 107.571 188.568C107.187 188.28 106.995 187.896 106.995 187.416V187.392H106.539C106.475 187.584 106.331 187.84 106.107 188.16C105.883 188.464 105.531 188.736 105.051 188.976C104.571 189.216 103.915 189.336 103.083 189.336ZM103.611 186.888C104.459 186.888 105.147 186.656 105.675 186.192C106.219 185.712 106.491 185.08 106.491 184.296V184.056H103.443C102.883 184.056 102.443 184.176 102.123 184.416C101.803 184.656 101.643 184.992 101.643 185.424C101.643 185.856 101.811 186.208 102.147 186.48C102.483 186.752 102.971 186.888 103.611 186.888ZM113.262 189V177.096H116.238V178.392H116.67C116.878 177.992 117.222 177.648 117.702 177.36C118.182 177.056 118.814 176.904 119.598 176.904C120.446 176.904 121.126 177.072 121.638 177.408C122.15 177.728 122.542 178.152 122.814 178.68H123.246C123.518 178.168 123.902 177.744 124.398 177.408C124.894 177.072 125.598 176.904 126.51 176.904C127.246 176.904 127.91 177.064 128.502 177.384C129.11 177.688 129.59 178.16 129.942 178.8C130.31 179.424 130.494 180.216 130.494 181.176V189H127.47V181.392C127.47 180.736 127.302 180.248 126.966 179.928C126.63 179.592 126.158 179.424 125.55 179.424C124.862 179.424 124.326 179.648 123.942 180.096C123.574 180.528 123.39 181.152 123.39 181.968V189H120.366V181.392C120.366 180.736 120.198 180.248 119.862 179.928C119.526 179.592 119.054 179.424 118.446 179.424C117.758 179.424 117.222 179.648 116.838 180.096C116.47 180.528 116.286 181.152 116.286 181.968V189H113.262ZM142.583 189L138.311 172.2H141.575L145.127 186.96H145.463L149.015 172.2H152.279L148.007 189H142.583ZM155.41 193.8V191.16H161.89C162.338 191.16 162.562 190.92 162.562 190.44V187.44H162.13C162.002 187.712 161.802 187.984 161.53 188.256C161.258 188.528 160.89 188.752 160.426 188.928C159.962 189.104 159.37 189.192 158.65 189.192C157.722 189.192 156.906 188.984 156.202 188.568C155.514 188.136 154.978 187.544 154.594 186.792C154.21 186.04 154.018 185.176 154.018 184.2V177.096H157.042V183.96C157.042 184.856 157.258 185.528 157.69 185.976C158.138 186.424 158.77 186.648 159.586 186.648C160.514 186.648 161.234 186.344 161.746 185.736C162.258 185.112 162.514 184.248 162.514 183.144V177.096H165.538V191.112C165.538 191.928 165.298 192.576 164.818 193.056C164.338 193.552 163.698 193.8 162.898 193.8H155.41ZM172.599 189.336C171.751 189.336 170.991 189.192 170.319 188.904C169.647 188.6 169.111 188.168 168.711 187.608C168.327 187.032 168.135 186.336 168.135 185.52C168.135 184.704 168.327 184.024 168.711 183.48C169.111 182.92 169.655 182.504 170.343 182.232C171.047 181.944 171.847 181.8 172.743 181.8H176.007V181.128C176.007 180.568 175.831 180.112 175.479 179.76C175.127 179.392 174.567 179.208 173.799 179.208C173.047 179.208 172.487 179.384 172.119 179.736C171.751 180.072 171.511 180.512 171.399 181.056L168.615 180.12C168.807 179.512 169.111 178.96 169.527 178.464C169.959 177.952 170.527 177.544 171.231 177.24C171.951 176.92 172.823 176.76 173.847 176.76C175.415 176.76 176.655 177.152 177.567 177.936C178.479 178.72 178.935 179.856 178.935 181.344V185.784C178.935 186.264 179.159 186.504 179.607 186.504H180.567V189H178.551C177.959 189 177.471 188.856 177.087 188.568C176.703 188.28 176.511 187.896 176.511 187.416V187.392H176.055C175.991 187.584 175.847 187.84 175.623 188.16C175.399 188.464 175.047 188.736 174.567 188.976C174.087 189.216 173.431 189.336 172.599 189.336ZM173.127 186.888C173.975 186.888 174.663 186.656 175.191 186.192C175.735 185.712 176.007 185.08 176.007 184.296V184.056H172.959C172.399 184.056 171.959 184.176 171.639 184.416C171.319 184.656 171.159 184.992 171.159 185.424C171.159 185.856 171.327 186.208 171.663 186.48C171.999 186.752 172.487 186.888 173.127 186.888ZM187.628 189.336C186.076 189.336 184.804 189 183.812 188.328C182.82 187.656 182.22 186.696 182.012 185.448L184.796 184.728C184.908 185.288 185.092 185.728 185.348 186.048C185.62 186.368 185.948 186.6 186.332 186.744C186.732 186.872 187.164 186.936 187.628 186.936C188.332 186.936 188.852 186.816 189.188 186.576C189.524 186.32 189.692 186.008 189.692 185.64C189.692 185.272 189.532 184.992 189.212 184.8C188.892 184.592 188.38 184.424 187.676 184.296L187.004 184.176C186.172 184.016 185.412 183.8 184.724 183.528C184.036 183.24 183.484 182.848 183.068 182.352C182.652 181.856 182.444 181.216 182.444 180.432C182.444 179.248 182.876 178.344 183.74 177.72C184.604 177.08 185.74 176.76 187.148 176.76C188.476 176.76 189.58 177.056 190.46 177.648C191.34 178.24 191.916 179.016 192.188 179.976L189.38 180.84C189.252 180.232 188.988 179.8 188.588 179.544C188.204 179.288 187.724 179.16 187.148 179.16C186.572 179.16 186.132 179.264 185.828 179.472C185.524 179.664 185.372 179.936 185.372 180.288C185.372 180.672 185.532 180.96 185.852 181.152C186.172 181.328 186.604 181.464 187.148 181.56L187.82 181.68C188.716 181.84 189.524 182.056 190.244 182.328C190.98 182.584 191.556 182.96 191.972 183.456C192.404 183.936 192.62 184.592 192.62 185.424C192.62 186.672 192.164 187.64 191.252 188.328C190.356 189 189.148 189.336 187.628 189.336Z" fill="#FFF"/>
</g>
</svg>
